<?xml version="1.0" encoding="utf-8"?>
<!-- Generator: Adobe Illustrator 22.1.0, SVG Export Plug-In . SVG Version: 6.00 Build 0)  -->
<svg version="1.1" id="Ebene_1" xmlns="http://www.w3.org/2000/svg" xmlns:xlink="http://www.w3.org/1999/xlink" x="0px" y="0px"
	 viewBox="0 0 82.2 48.9" style="enable-background:new 0 0 82.2 48.9;" xml:space="preserve">
<style type="text/css">
	.st0{fill:#333333;}
</style>
<path class="st0" d="M2.6,13.3l33.3,33.3c2.9,3,7.5,3,10.4,0l33.3-33.3c3-3,3.6-7.1,0.6-10.1l-1.1-1.1c-2.8-2.4-5.9-2.9-8.3-0.4
	c-8.1,8.1-16.3,16.4-24.5,24.5c-2.9,2.9-7.5,2.9-10.4,0C27.8,18.1,19.5,9.8,11.4,1.7C9-0.8,5.9-0.3,3.3,2.1L2,3.2
	C-1,6.2-0.4,10.3,2.6,13.3L2.6,13.3z"/>
</svg>
