<?xml version="1.0" encoding="utf-8"?>
<!-- Generator: Adobe Illustrator 22.1.0, SVG Export Plug-In . SVG Version: 6.00 Build 0)  -->
<svg version="1.1" id="Ebene_1" xmlns="http://www.w3.org/2000/svg" xmlns:xlink="http://www.w3.org/1999/xlink" x="0px" y="0px"
	 viewBox="0 0 82.1 48.8" style="enable-background:new 0 0 82.1 48.8;" xml:space="preserve">
<style type="text/css">
	.st0{fill:#333333;}
</style>
<path class="st0" d="M79.6,35.6L46.3,2.3c-2.9-3-7.5-3-10.4,0L2.6,35.6c-3,3-3.6,7.1-0.6,10.1l1.1,1.1c2.8,2.4,5.9,2.9,8.3,0.4
	c8.1-8.1,16.3-16.4,24.5-24.5c2.9-2.9,7.5-2.9,10.4,0c8.1,8.1,16.4,16.4,24.5,24.5c2.4,2.5,5.5,2,8.1-0.4l1.3-1.1
	C83.2,42.7,82.6,38.6,79.6,35.6L79.6,35.6z"/>
</svg>
