<?xml version="1.0" standalone="no"?>
<!DOCTYPE svg PUBLIC "-//W3C//DTD SVG 20010904//EN"
 "http://www.w3.org/TR/2001/REC-SVG-20010904/DTD/svg10.dtd">
<svg version="1.0" xmlns="http://www.w3.org/2000/svg"
 width="318.000000pt" height="318.000000pt" viewBox="0 0 318.000000 318.000000"
 preserveAspectRatio="xMidYMid meet">
<metadata>
Created by potrace 1.11, written by Peter Selinger 2001-2013
</metadata>
<g transform="translate(0.000000,318.000000) scale(0.100000,-0.100000)"
fill="#000000" stroke="none">
<path d="M1559 3165 c-3 -2 -27 -6 -54 -9 -28 -3 -64 -8 -81 -10 -41 -6 -156
-36 -169 -44 -5 -4 -17 -7 -25 -9 -33 -4 -90 -27 -90 -35 0 -5 4 -7 9 -4 43
27 421 68 421 45 0 -4 -24 -10 -52 -14 -60 -8 -414 -107 -450 -126 -13 -6 -70
-42 -128 -79 -58 -37 -136 -85 -173 -107 -83 -49 -178 -129 -237 -200 -55 -66
-71 -68 -35 -5 54 93 129 180 229 267 30 26 105 75 115 75 7 0 14 7 17 15 3 8
21 19 41 26 19 6 32 13 30 16 -7 6 -78 -25 -99 -44 -10 -9 -18 -13 -18 -9 0 3
-18 -5 -40 -19 -22 -14 -44 -25 -49 -25 -5 0 -16 -6 -23 -12 -7 -7 -39 -30
-71 -51 -32 -21 -60 -44 -64 -52 -3 -8 -9 -13 -13 -10 -11 7 -171 -165 -164
-176 3 -5 1 -9 -3 -9 -13 0 -78 -115 -112 -198 -16 -40 -28 -72 -25 -72 3 0
-1 -10 -8 -22 -6 -13 -13 -28 -14 -34 -1 -6 -14 -30 -29 -54 -59 -93 -101
-213 -130 -365 -13 -73 -6 -285 15 -415 64 -404 146 -581 364 -794 39 -37 103
-93 141 -122 39 -30 104 -82 145 -115 95 -78 176 -132 313 -207 95 -53 281
-117 397 -138 77 -13 255 -20 305 -10 11 2 38 6 60 10 55 10 268 79 339 110
32 14 64 26 70 26 6 0 17 9 24 20 7 11 21 20 32 20 32 0 194 65 263 106 98 57
273 210 353 309 42 51 87 125 81 131 -7 7 -136 -123 -151 -152 -32 -67 -96
-133 -162 -170 -37 -21 -74 -37 -83 -37 -9 0 -19 -4 -22 -9 -3 -5 -37 -20 -75
-33 l-69 -25 55 50 c30 27 58 50 63 50 4 0 7 4 7 10 0 5 -24 1 -52 -10 l-53
-19 82 77 c86 81 141 148 174 215 l21 40 -62 -54 c-35 -31 -87 -93 -121 -145
-66 -99 -109 -133 -224 -175 -33 -12 -65 -25 -70 -30 -6 -4 -42 -16 -81 -27
-62 -18 -90 -19 -184 -13 l-25 2 29 15 c15 9 38 18 51 20 12 2 36 11 51 20
l29 16 -29 -7 c-88 -19 -131 -23 -240 -20 -67 2 -132 5 -146 8 -14 3 -42 8
-63 11 -21 4 -47 11 -58 16 -10 6 -19 9 -19 6 0 -14 -226 71 -324 124 -354
187 -578 438 -660 740 -91 336 -110 646 -52 845 55 186 148 337 303 489 126
125 310 232 449 261 92 20 325 27 429 13 331 -44 617 -187 867 -435 l87 -86
68 23 c102 34 101 32 59 77 -20 22 -36 43 -36 45 0 3 36 15 80 28 44 13 80 28
80 35 0 6 -41 51 -90 100 -58 56 -87 92 -81 98 10 10 -30 57 -49 57 -5 0 -10
4 -10 9 0 5 -26 29 -58 53 -32 24 -57 48 -55 54 2 5 -13 16 -33 23 -20 7 -62
28 -92 47 -31 18 -59 31 -64 28 -4 -3 -8 -1 -8 4 0 8 -103 55 -116 52 -4 -1
-10 3 -13 9 -4 5 -18 12 -33 15 -14 2 -37 10 -50 17 -12 7 -25 12 -28 11 -3
-1 -23 3 -45 9 -122 33 -178 40 -346 44 -86 2 -158 2 -160 0z m-478 -350 c-46
-30 -90 -55 -97 -55 -7 0 -66 -22 -130 -50 l-118 -49 43 43 c55 56 112 87 242
130 146 50 159 46 60 -19z m1249 -11 c120 -72 313 -224 299 -238 -3 -3 -14 2
-25 12 -46 44 -191 137 -288 186 -97 49 -103 55 -88 70 9 9 18 16 20 16 2 0
39 -21 82 -46z m-1375 -81 c-185 -159 -343 -314 -397 -389 -33 -46 -58 -61
-36 -21 6 12 13 27 14 32 12 70 135 215 249 292 60 40 185 113 195 113 3 -1
-8 -12 -25 -27z m1711 -184 c19 -22 19 -22 -3 -10 -13 6 -23 16 -23 21 0 15 5
12 26 -11z m-1116 -2414 c170 -33 311 -35 420 -6 41 11 86 23 100 27 16 4 8
-4 -23 -25 -92 -60 -226 -71 -457 -37 -59 9 -210 57 -210 67 0 4 8 5 18 3 9
-2 78 -15 152 -29z"/>
<path d="M1095 3044 l-30 -13 30 6 c32 6 41 11 34 17 -2 2 -17 -2 -34 -10z"/>
<path d="M2210 2202 c0 -4 101 -108 225 -232 124 -124 225 -229 225 -233 0 -5
-101 -110 -225 -234 -124 -124 -225 -228 -225 -232 0 -11 450 -461 460 -461 6
0 38 29 72 65 34 36 68 65 75 65 7 0 13 5 13 11 0 6 69 80 154 165 l154 153
-231 232 c-129 129 -226 234 -219 236 6 3 12 10 12 16 0 15 83 97 99 97 6 0
11 5 11 11 0 6 64 75 143 153 78 78 153 154 166 169 l24 27 -466 0 c-257 0
-467 -3 -467 -8z"/>
<path d="M2390 540 c-8 -5 -40 -20 -70 -33 -30 -14 -66 -35 -79 -48 -14 -13
-43 -36 -65 -51 -54 -37 -40 -35 42 4 65 31 76 38 107 66 8 7 15 11 15 7 0 -6
8 0 54 40 28 24 26 33 -4 15z"/>
</g>
</svg>
