<?xml version="1.0" standalone="no"?>
<!DOCTYPE svg PUBLIC "-//W3C//DTD SVG 20010904//EN"
 "http://www.w3.org/TR/2001/REC-SVG-20010904/DTD/svg10.dtd">
<svg version="1.0" xmlns="http://www.w3.org/2000/svg"
 width="700.000000pt" height="700.000000pt" viewBox="0 0 700.000000 700.000000"
 preserveAspectRatio="xMidYMid meet">
<metadata>
Created by potrace 1.11, written by Peter Selinger 2001-2013
</metadata>
<g transform="translate(0.000000,700.000000) scale(0.100000,-0.100000)"
fill="#000000" stroke="none">
<path d="M1594 5484 c-21 -13 -46 -28 -54 -34 -37 -25 -111 -70 -116 -70 -3 0
-24 -13 -47 -29 -38 -26 -134 -86 -510 -314 -62 -38 -142 -88 -179 -113 -37
-24 -70 -44 -72 -44 -2 0 -40 -22 -83 -50 -43 -27 -94 -59 -113 -70 -19 -11
-51 -30 -71 -43 -20 -12 -107 -65 -193 -117 l-156 -95 0 -970 0 -970 302 -185
c166 -102 357 -218 423 -259 66 -40 132 -81 147 -90 26 -15 156 -95 398 -245
63 -39 123 -75 132 -81 9 -5 61 -37 114 -70 54 -33 116 -71 138 -84 23 -13 52
-31 66 -41 25 -18 26 -18 110 34 47 28 96 59 110 67 51 33 510 314 527 324 61
34 149 90 151 97 2 4 8 8 14 8 6 0 30 14 55 30 24 17 47 30 50 30 3 0 32 18
64 40 32 22 61 40 65 40 3 0 29 15 57 34 29 18 223 138 432 266 209 127 391
240 405 249 14 10 50 32 80 50 30 17 97 58 147 89 51 31 169 104 263 162 94
58 190 117 213 132 23 15 53 33 67 41 25 13 215 130 383 235 49 30 85 58 80
63 -15 15 -334 209 -344 209 -5 0 -9 5 -9 10 0 6 -4 10 -10 10 -5 0 -59 31
-119 69 -61 39 -116 71 -123 73 -7 1 -115 -60 -241 -137 -125 -77 -235 -144
-245 -150 -10 -5 -132 -80 -272 -167 -140 -86 -358 -220 -485 -297 -126 -77
-235 -145 -241 -150 -6 -5 -29 -19 -50 -30 -21 -12 -82 -48 -134 -81 -144 -92
-129 -88 -202 -44 -34 22 -71 44 -80 49 -10 6 -46 28 -80 49 -97 60 -448 276
-498 306 -25 15 -119 73 -208 129 -90 55 -168 101 -173 101 -5 0 -9 5 -9 10 0
6 -5 10 -11 10 -6 0 -36 16 -67 37 -102 65 -125 79 -327 204 -110 67 -211 129
-225 136 -14 8 -59 35 -100 61 l-75 48 -3 64 -3 65 43 26 c216 134 1247 767
1267 779 14 8 95 57 179 109 l153 94 -28 19 c-39 27 -512 317 -548 337 -16 9
-32 18 -35 21 -3 3 -16 13 -31 22 -24 15 -27 15 -65 -8z"/>
<path d="M5020 5365 c-129 -79 -240 -147 -245 -152 -6 -4 -26 -17 -45 -27 -19
-11 -60 -36 -90 -55 -30 -20 -60 -38 -65 -41 -25 -12 -190 -114 -195 -120 -3
-4 -10 -9 -15 -11 -24 -9 -240 -143 -243 -151 -2 -4 -8 -8 -13 -8 -9 0 -325
-191 -346 -209 -7 -6 -14 -11 -17 -11 -4 0 -162 -97 -296 -181 -25 -16 -58
-36 -75 -45 -16 -9 -52 -31 -80 -49 -42 -27 -356 -221 -419 -258 -11 -7 -45
-28 -75 -47 -31 -19 -65 -40 -76 -46 -11 -6 -66 -40 -123 -75 -57 -35 -111
-69 -120 -74 -9 -6 -50 -30 -90 -55 -41 -25 -86 -52 -100 -61 -15 -9 -76 -47
-137 -84 -60 -37 -122 -75 -136 -83 l-26 -16 66 -42 c118 -74 515 -317 540
-330 21 -11 30 -9 75 19 28 17 53 35 54 39 2 4 7 8 12 8 5 0 46 23 92 51 90
56 329 203 501 308 59 36 120 74 135 83 15 10 39 24 53 32 15 8 95 58 179 111
84 52 154 95 156 95 3 0 35 20 72 44 37 24 161 101 277 171 l210 128 30 -18
c16 -10 44 -25 60 -35 17 -10 58 -35 92 -56 57 -35 379 -233 783 -482 212
-130 264 -163 313 -193 73 -46 311 -192 337 -206 14 -8 63 -39 110 -68 47 -30
111 -69 142 -87 l58 -33 0 -65 0 -65 -132 -81 c-73 -45 -194 -119 -268 -164
-74 -45 -151 -92 -170 -105 -166 -105 -232 -145 -240 -145 -4 0 -10 -3 -12 -7
-1 -5 -16 -15 -31 -23 -39 -21 -628 -383 -715 -439 l-73 -48 93 -57 c51 -31
201 -123 333 -205 212 -130 242 -146 260 -135 103 61 531 324 570 349 28 17
131 81 230 142 99 60 257 157 350 215 94 58 236 145 317 194 l148 89 0 970 0
970 -237 145 c-130 80 -242 147 -248 149 -5 2 -12 7 -15 10 -4 5 -134 86 -242
150 -15 9 -77 48 -139 86 -62 39 -118 72 -124 75 -5 3 -35 21 -66 40 -30 19
-64 40 -75 47 -10 6 -112 69 -227 140 -114 70 -219 135 -235 143 -15 8 -28 18
-30 23 -2 4 -8 7 -14 7 -5 0 -28 13 -51 29 l-43 29 -234 -143z"/>
</g>
</svg>
